<?xml version="1.0" ?>
<!DOCTYPE svg  PUBLIC '-//W3C//DTD SVG 1.1//EN'  'http://www.w3.org/Graphics/SVG/1.1/DTD/svg11.dtd'>
<!-- Uploaded to: SVG Repo, www.svgrepo.com, Generator: SVG Repo Mixer Tools -->
<svg fill="#000000" width="800px" height="800px" viewBox="0 0 512 512" enable-background="new 0 0 512 512" id="Layer_1" version="1.1" xml:space="preserve" xmlns="http://www.w3.org/2000/svg" xmlns:xlink="http://www.w3.org/1999/xlink">
<g>
<g>
<path d="M204.211,329.842c-1.727,0-3.453-0.446-5-1.34c-3.094-1.786-5-5.088-5-8.66V192.158c0-3.572,1.906-6.874,5-8.66    c3.094-1.787,6.905-1.787,10,0l110.578,63.84c3.094,1.786,5,5.087,5,8.66c0,3.572-1.906,6.874-5,8.66l-110.578,63.844    C207.664,329.396,205.938,329.842,204.211,329.842z M214.211,209.479v93.043l80.578-46.523L214.211,209.479z"/>
</g>
<g>
<path d="M458.5,415h-405c-5.523,0-10-4.478-10-10V107c0-5.522,4.477-10,10-10h405c5.523,0,10,4.478,10,10v298    C468.5,410.522,464.023,415,458.5,415z M63.5,395h385V117h-385V395z"/>
</g>
<g>
<path d="M101.5,195c-13.233,0-24-10.767-24-24s10.767-24,24-24s24,10.767,24,24S114.733,195,101.5,195z M101.5,167    c-2.206,0-4,1.794-4,4s1.794,4,4,4s4-1.794,4-4S103.706,167,101.5,167z"/>
</g>
<g>
<path d="M101.5,284.5c-13.233,0-24-10.767-24-24s10.767-24,24-24s24,10.767,24,24S114.733,284.5,101.5,284.5z M101.5,256.5    c-2.206,0-4,1.794-4,4s1.794,4,4,4s4-1.794,4-4S103.706,256.5,101.5,256.5z"/>
</g>
<g>
<path d="M101.5,374c-13.233,0-24-10.767-24-24s10.767-24,24-24s24,10.767,24,24S114.733,374,101.5,374z M101.5,346    c-2.206,0-4,1.794-4,4s1.794,4,4,4s4-1.794,4-4S103.706,346,101.5,346z"/>
</g>
<g>
<path d="M412.462,195c-13.233,0-24-10.767-24-24s10.767-24,24-24s24,10.767,24,24S425.696,195,412.462,195z M412.462,167    c-2.206,0-4,1.794-4,4s1.794,4,4,4s4-1.794,4-4S414.668,167,412.462,167z"/>
</g>
<g>
<path d="M412.462,284.5c-13.233,0-24-10.767-24-24s10.767-24,24-24s24,10.767,24,24S425.696,284.5,412.462,284.5z M412.462,256.5    c-2.206,0-4,1.794-4,4s1.794,4,4,4s4-1.794,4-4S414.668,256.5,412.462,256.5z"/>
</g>
<g>
<path d="M412.462,374c-13.233,0-24-10.767-24-24s10.767-24,24-24s24,10.767,24,24S425.696,374,412.462,374z M412.462,346    c-2.206,0-4,1.794-4,4s1.794,4,4,4s4-1.794,4-4S414.668,346,412.462,346z"/>
</g>
</g>
</svg>